Coordinates
version=1
nRows=68
nColumns=6
inDegrees=yes

Units are S.I. units (second, meters, Newtons, ...)
If the header above contains a line with 'inDegrees', this indicates whether rotational values are in degrees (yes) or radians (no).

endheader
time	foot_tx	hip_flexion_r	knee_angle_r	ankle_angle_r	lumbar
      6.90000000	      0.26267258	     61.51026796	    -65.74840383	      1.75020286	    -12.11346366
      6.91000000	      0.26268711	     61.57761871	    -65.74736386	      1.74464705	    -12.27645338
      6.92000000	      0.26270307	     61.64806173	    -65.74391066	      1.73766044	    -12.45690502
      6.93000000	      0.26271757	     61.72465371	    -65.73744838	      1.72920697	    -12.65066332
      6.94000000	      0.26273055	     61.81102513	    -65.72756241	      1.71904341	    -12.85294048
      6.95000000	      0.26274115	     61.90791161	    -65.71269658	      1.70646231	    -13.06354829
      6.96000000	      0.26274208	     62.01586732	    -65.69495773	      1.69331460	    -13.28197984
      6.97000000	      0.26275395	     62.18452216	    -65.67155747	      1.67325506	    -13.45041795
      6.98000000	      0.26273882	     62.27381508	    -65.64814987	      1.66203427	    -13.73258075
      6.99000000	      0.26274187	     62.46606737	    -65.62113028	      1.64205099	    -13.91478539
      7.00000000	      0.26272456	     62.60010802	    -65.59436254	      1.62969674	    -14.18540711
      7.01000000	      0.26271756	     62.81547350	    -65.56745587	      1.61330014	    -14.38027150
      7.02000000	      0.26270489	     63.03817787	    -65.54194557	      1.60039512	    -14.58575998
      7.03000000	      0.26268753	     63.27087117	    -65.51956157	      1.59216254	    -14.79807067
      7.04000000	      0.26266682	     63.51606135	    -65.50086989	      1.58911299	    -15.01384158
      7.05000000	      0.26264612	     63.77567228	    -65.48542561	      1.59103166	    -15.23050418
      7.06000000	      0.26262504	     64.09598068	    -65.47520905	      1.59629868	    -15.39337187
      7.07000000	      0.26260612	     64.42820735	    -65.46888700	      1.60767846	    -15.55934835
      7.08000000	      0.26258517	     64.78606027	    -65.46717792	      1.62520413	    -15.71295035
      7.09000000	      0.26256222	     65.16933807	    -65.46984574	      1.64905759	    -15.85511901
      7.10000000	      0.26254068	     65.58132986	    -65.47712738	      1.67921840	    -15.98166538
      7.11000000	      0.26251196	     66.01922036	    -65.48915432	      1.71662257	    -16.09769508
      7.12000000	      0.26248409	     66.49080011	    -65.50552206	      1.75999114	    -16.19337935
      7.13000000	      0.26244378	     66.99203175	    -65.52730029	      1.81129445	    -16.27628139
      7.14000000	      0.26240720	     67.52581977	    -65.55191572	      1.86752972	    -16.34272981
      7.15000000	      0.26236394	     68.09401334	    -65.58096366	      1.93027826	    -16.39273808
      7.16000000	      0.26232420	     68.69167639	    -65.61082909	      1.99688868	    -16.43423968
      7.17000000	      0.26228088	     69.32193129	    -65.64408019	      2.06918705	    -16.46476103
      7.18000000	      0.26223667	     69.98055700	    -65.68044260	      2.14692939	    -16.49110121
      7.19000000	      0.26219085	     70.66786258	    -65.71927075	      2.22973883	    -16.51562867
      7.20000000	      0.26214569	     71.38857779	    -65.76097135	      2.31758643	    -16.53437907
      7.21000000	      0.26210010	     72.14470506	    -65.80634033	      2.41073493	    -16.54635919
      7.22000000	      0.26204965	     72.93722311	    -65.85488654	      2.50942462	    -16.55223838
      7.23000000	      0.26199574	     73.77102241	    -65.90549807	      2.61286645	    -16.54686858
      7.24000000	      0.26193285	     74.64211158	    -65.96083488	      2.72391055	    -16.53463501
      7.25000000	      0.26188109	     75.54577153	    -66.01499336	      2.83836403	    -16.52185856
      7.26000000	      0.26182193	     76.48851909	    -66.07264306	      2.96072474	    -16.49819955
      7.27000000	      0.26175853	     77.47326512	    -66.13209391	      3.09062302	    -16.45550252
      7.28000000	      0.26169917	     78.48820423	    -66.19438755	      3.22977169	    -16.39942026
      7.29000000	      0.26163351	     79.54297277	    -66.26052051	      3.38039267	    -16.30986292
      7.30000000	      0.26156107	     80.62876714	    -66.33265116	      3.54542660	    -16.18885339
      7.31000000	      0.26148193	     81.73893202	    -66.41148411	      3.72678977	    -16.03846173
      7.32000000	      0.26139616	     82.86608306	    -66.49780658	      3.92651518	    -15.86380676
      7.33000000	      0.26130595	     84.00088072	    -66.59166253	      4.14583798	    -15.67416940
      7.34000000	      0.26121772	     85.13460135	    -66.69470470	      4.38628090	    -15.47872657
      7.35000000	      0.26113565	     86.27801117	    -66.80587263	      4.64637556	    -15.26271034
      7.36000000	      0.26106647	     87.43556124	    -66.92570377	      4.92555226	    -15.01713774
      7.37000000	      0.26101570	     88.61648394	    -67.04894119	      5.21986471	    -14.72549389
      7.38000000	      0.26098908	     89.81023749	    -67.17153812	      5.52737334	    -14.39442983
      7.39000000	      0.26098966	     91.00585578	    -67.28824189	      5.84556744	    -14.03140806
      7.40000000	      0.26102070	     92.19251582	    -67.39399175	      6.17113437	    -13.64430430
      7.41000000	      0.26108345	     93.33872335	    -67.48864235	      6.50385424	    -13.26775501
      7.42000000	      0.26117750	     94.43308771	    -67.56901793	      6.84042229	    -12.91066599
      7.43000000	      0.26129602	     95.45261759	    -67.63762330	      7.18079201	    -12.59748774
      7.44000000	      0.26143611	     96.38660921	    -67.70011352	      7.52518009	    -12.33789994
      7.45000000	      0.26158768	     97.22737780	    -67.76518783	      7.87570798	    -12.13783605
      7.46000000	      0.26174663	     97.96847979	    -67.84051723	      8.23439617	    -11.99983720
      7.47000000	      0.26190998	     98.60529364	    -67.93010045	      8.60232512	    -11.92128440
      7.48000000	      0.26208282	     99.13161400	    -68.03559706	      8.97990930	    -11.89992116
      7.49000000	      0.26227037	     99.54486461	    -68.15522960	      9.36638503	    -11.92892674
      7.50000000	      0.26247855	     99.84779610	    -68.28437854	      9.75914014	    -11.99843710
      7.51000000	      0.26269888	    100.04232187	    -68.41863998	     10.15781526	    -12.10009986
      7.52000000	      0.26293974	    100.17826021	    -68.54226482	     10.55196764	    -12.16960923
      7.53000000	      0.26318519	    100.18515996	    -68.65696003	     10.94849397	    -12.29658987
      7.54000000	      0.26344178	    100.14698383	    -68.74769413	     11.33553687	    -12.37688518
      7.55000000	      0.26370145	    100.05091451	    -68.81166997	     11.71291047	    -12.43080907
      7.56000000	      0.26395835	     99.90339235	    -68.84621640	     12.07954643	    -12.45356265
      7.57000000	      0.26421123	     99.69644249	    -68.84463281	     12.43273622	    -12.45870079
